<svg xmlns="http://www.w3.org/2000/svg" xmlns:xlink="http://www.w3.org/1999/xlink" width="360" height="200" viewBox="0 0 360 200"><defs><style>.a,.e{fill:#fff;}.a{stroke:#707070;}.b{clip-path:url(#a);}.c{fill:#f5f8ff;}.d{fill:#fa9419;}.f{fill:#121b45;}.g{fill:#8ce2d6;}.h{fill:#fefefe;}.i{fill:#fcea81;}</style><clipPath id="a"><rect class="a" width="360" height="200" transform="translate(0 0)"/></clipPath></defs><g class="b"><g transform="translate(-584.199 -188)"><g transform="translate(763.462 92.984)"><path class="c" d="M252,0H0A130.922,130.922,0,0,0,2.56,25.8a128.387,128.387,0,0,0,18.959,45.77A128.5,128.5,0,0,0,36.9,90.51a127.36,127.36,0,0,0,18.648,15.63,125.4,125.4,0,0,0,21.4,11.8,123.934,123.934,0,0,0,23.652,7.458,125.281,125.281,0,0,0,50.787,0,123.936,123.936,0,0,0,23.652-7.458,125.4,125.4,0,0,0,21.4-11.8A127.363,127.363,0,0,0,215.1,90.51a128.5,128.5,0,0,0,15.386-18.944A128.385,128.385,0,0,0,249.44,25.8,130.924,130.924,0,0,0,252,0Z" transform="translate(51.737 86.016)"/></g><g transform="translate(901.073 199.177)"><path class="d" d="M-2880.866,3116.771h-17.916V3133a.652.652,0,0,0,.016.137,1.119,1.119,0,0,0-.016.18c0,1.714,4.011,3.1,8.958,3.1s8.958-1.39,8.958-3.1a1.119,1.119,0,0,0-.016-.18.652.652,0,0,0,.016-.137Z" transform="translate(2898.782 -3113.667)"/><ellipse class="e" cx="8.958" cy="3.104" rx="8.958" ry="3.104"/></g><g transform="translate(873.142 229.23)"><path class="f" d="M13.888,135.336.1,121.9l13.788,8.441Z" transform="translate(-0.089 -108.496)"/><path class="g" d="M125,135.311l13.749-13.444L125,130.3Z" transform="translate(-111.256 -108.471)"/><path class="g" d="M13.744,0,0,13.414l13.744,8.422Z"/><path class="h" d="M125,0l13.744,13.414L125,21.837Z" transform="translate(-111.256)"/></g><g transform="translate(798.15 190.086)"><path class="i" d="M0,19.659l11.09-6.734V0L0,6.758Z" transform="translate(11.09 6.553)"/><path class="f" d="M11.09,19.659,0,12.926V0L11.09,6.758Z" transform="translate(0 6.524)"/><path class="h" d="M0,6.625,11.09,0,22.18,6.625,11.09,13.358Z" transform="translate(0 0)"/></g></g></g></svg>