<svg xmlns="http://www.w3.org/2000/svg" xmlns:xlink="http://www.w3.org/1999/xlink" width="131.617" height="34.066" viewBox="0 0 131.617 34.066"><defs><style>.a{fill:none;}.b{fill:#102d6f;}.c{clip-path:url(#a);}.d{clip-path:url(#b);}</style><clipPath id="a"><path class="a" d="M0,0H38.49V32.77H0Z"/></clipPath><clipPath id="b"><path class="a" d="M0,34.066H131.617V0H0Z"/></clipPath></defs><path class="b" d="M0,1.42A14.684,14.684,0,0,1,2.869,3.744H5.652A15.323,15.323,0,0,0,1.739,0,13.764,13.764,0,0,1,0,1.42" transform="translate(23.274 5.164)"/><path class="b" d="M15.492,14.546V14.5a14.494,14.494,0,0,1-5.218-1.247h-.044l-.044-.044A13.859,13.859,0,0,1,3.014,5.466a14.746,14.746,0,0,1-.826-3.829A6.99,6.99,0,0,1,.362.345,2.622,2.622,0,0,1,.014,0,15.841,15.841,0,0,0,.971,6.2,15.739,15.739,0,0,0,9.1,15.062l.13.044A15.789,15.789,0,0,0,18.1,16.439a7.839,7.839,0,0,1-2.434-1.721l-.174-.172" transform="translate(0 17.471)"/><path class="b" d="M0,2.668.826,6.412a4.294,4.294,0,0,0,.3-.645l.044-.129A16.154,16.154,0,0,0,2.652,0,13.637,13.637,0,0,1,.435.473,13.076,13.076,0,0,1,0,2.668" transform="translate(29.318 19.279)"/><g transform="translate(0.088)"><path class="a" d="M0,0H38.49V32.77H0Z"/><g class="c"><path class="b" d="M21.949,32.771a7.44,7.44,0,0,1-.978-.065,5.806,5.806,0,0,1-1.87-.559,6.232,6.232,0,0,1-2-1.42,5.692,5.692,0,0,1-1.043-1.464,11.558,11.558,0,0,1-2.13-.172,12.177,12.177,0,0,1-2.7-.86A11.221,11.221,0,0,1,6.145,23.54a11.607,11.607,0,0,1-1.39-5.767,4.8,4.8,0,0,1-1.13-.258A5.323,5.323,0,0,1,1.711,16.31,5.471,5.471,0,0,1,.1,13.384a5.191,5.191,0,0,1,.435-3.313l.217-.388.435-.817.869.388L14.58,15.019a10.765,10.765,0,0,1,3.3,2.238,6.35,6.35,0,0,1,1.652,3.1l1.3,5.982a6.231,6.231,0,0,1,1.609.645A4.509,4.509,0,0,1,23.8,28.145l-1.522,1.161a1.975,1.975,0,0,0-.782-.645,5.258,5.258,0,0,0-1.653-.56l-.609-.129-.13-.6-1.217-5.636a6.762,6.762,0,0,1-.826.344,4.111,4.111,0,0,1-1.032.131,3.973,3.973,0,0,1-1.534-.3l-.217-.087a3.889,3.889,0,0,1-2.044-2.194,3.694,3.694,0,0,1,.088-2.884l.043-.128a1.719,1.719,0,0,1,.212-.379l.006-.008L2.1,11.4a3.141,3.141,0,0,0-.088,1.678,3.582,3.582,0,0,0,1.044,1.937,3.65,3.65,0,0,0,1.217.775,3.555,3.555,0,0,0,.652.171h.043c.022-.128.076-.322.129-.51s.11-.392.132-.523l1.043.474.652.3-.087.3a8.68,8.68,0,0,0-.217,3.184,9.868,9.868,0,0,0,1.087,3.485,9.22,9.22,0,0,0,4.216,3.916,8.75,8.75,0,0,0,2.217.689,10.806,10.806,0,0,0,1.741.145c.19,0,.379-.006.563-.016l.7-.043.261.647a4.054,4.054,0,0,0,.956,1.462A4.355,4.355,0,0,0,19.8,30.511a3.739,3.739,0,0,0,1.349.388,10.751,10.751,0,0,0,1.174.043l4.13-2.841-1.565-7.272-.044-.172a8.844,8.844,0,0,0,.3-2.282A9.069,9.069,0,0,0,19.8,9.984c-.246-.122-.457-.206-.661-.288L19.1,9.683a3.7,3.7,0,0,0-.739-.215,4.659,4.659,0,0,0-.739-.172h-.087a5.6,5.6,0,0,1-2.479,2.238,5.4,5.4,0,0,1-2.246.489,5.666,5.666,0,0,1-1.058-.1,15.93,15.93,0,0,1-2.783-.989A15.539,15.539,0,0,1,6.58,9.726,5.323,5.323,0,0,1,4.624,6.713a5.64,5.64,0,0,1,.347-3.572A5.757,5.757,0,0,1,6.841.947,5.512,5.512,0,0,1,9.58,0h.088L24.492.043h1.652l-.868,1.42a11.123,11.123,0,0,1-4.087,4.046,10.966,10.966,0,0,1-5.522,1.463H9.8l.044-1.937H15.71a9.165,9.165,0,0,0,4.564-1.2,10.193,10.193,0,0,0,2.392-1.936H9.711a3.35,3.35,0,0,0-1.7.6A3.568,3.568,0,0,0,6.8,3.916,3.656,3.656,0,0,0,6.536,6.24,3.732,3.732,0,0,0,7.8,8.219a21.364,21.364,0,0,0,1.957.947,13.956,13.956,0,0,0,2.391.86,3.921,3.921,0,0,0,.674.058,3.59,3.59,0,0,0,1.5-.316,3.321,3.321,0,0,0,1.566-1.421l.261-.517.3-.6.7.086.415.061c.146.022.3.045.454.067a5.173,5.173,0,0,1,.871.216c.157.044.3.089.447.133s.275.084.422.126c.116.049.226.092.332.134.171.067.333.13.494.21a11.359,11.359,0,0,1,3.652,2.669h14.26l-.869,1.42a11.248,11.248,0,0,1-3.565,3.7,10.508,10.508,0,0,1-4.826,1.721h-.086l-.087-1.85h.087A9.08,9.08,0,0,0,33.1,14.5a10.067,10.067,0,0,0,1.912-1.678H25.665c.021.041.053.093.084.144s.068.112.091.157A11.071,11.071,0,0,1,26.97,20.1l-.087.517,1.652,7.617.13.6-.522.344-4.825,3.357-.174.128-.218.043A7.44,7.44,0,0,1,21.949,32.771ZM14.276,17.042c-.025.037-.051.071-.075.1a.855.855,0,0,0-.143.241,1.933,1.933,0,0,0-.086,1.549A2.09,2.09,0,0,0,15.014,20.1a2.159,2.159,0,0,0,.886.2,1.778,1.778,0,0,0,.506-.073,2.226,2.226,0,0,0,.782-.387,3.139,3.139,0,0,0-.782-1.248A7.7,7.7,0,0,0,14.276,17.042Z" transform="translate(-0.001 0)"/></g></g><path class="b" d="M6.695,5.509a5.122,5.122,0,0,0-1.217-.516c-.435-.129-.826-.258-1.217-.388a2.778,2.778,0,0,1-.957-.43A.866.866,0,0,1,2.912,3.4a.922.922,0,0,1,.174-.516,1.022,1.022,0,0,1,.392-.344A1.337,1.337,0,0,1,4,2.324a2.717,2.717,0,0,1,.566-.043,2.647,2.647,0,0,1,.956.172,1.874,1.874,0,0,1,.826.559L7.956,1.162a3.818,3.818,0,0,0-1.565-.9A6.679,6.679,0,0,0,4.565,0,6.547,6.547,0,0,0,3,.215,4.42,4.42,0,0,0,1.652.9,3.375,3.375,0,0,0,.7,2.022a3.413,3.413,0,0,0-.347,1.55A2.534,2.534,0,0,0,.739,5.035a2.716,2.716,0,0,0,.956.9,4.675,4.675,0,0,0,1.261.56c.435.129.869.259,1.261.388a3.94,3.94,0,0,1,.956.473.867.867,0,0,1,.392.775.915.915,0,0,1-.13.516,1.029,1.029,0,0,1-.392.345,2.179,2.179,0,0,1-.565.214,2.967,2.967,0,0,1-.609.087,2.9,2.9,0,0,1-1.174-.259,2.392,2.392,0,0,1-.956-.774L0,10.156a5,5,0,0,0,1.739,1.076,5.9,5.9,0,0,0,2,.345,6.926,6.926,0,0,0,1.652-.215,4.95,4.95,0,0,0,1.348-.688A2.664,2.664,0,0,0,7.7,9.553a3.579,3.579,0,0,0,.348-1.591A2.61,2.61,0,0,0,6.695,5.509" transform="translate(43.056 11.145)"/><path class="b" d="M2.348,11.317H0V.258H2.262v.989H2.3a2.636,2.636,0,0,1,.171-.214C2.532.966,2.591.9,2.651.817a2.6,2.6,0,0,1,.34-.259c.062-.042.125-.086.183-.128a4.543,4.543,0,0,1,.645-.3l.007,0A2.329,2.329,0,0,1,4.608,0,3.372,3.372,0,0,1,6.131.3,2.845,2.845,0,0,1,7.3,1.119a4.066,4.066,0,0,1,.782,1.248,4.472,4.472,0,0,1,.261,1.55,4.4,4.4,0,0,1-.261,1.505,4.64,4.64,0,0,1-.7,1.291,3.149,3.149,0,0,1-1.087.9,3.246,3.246,0,0,1-1.479.344,4.877,4.877,0,0,1-1.391-.215,1.87,1.87,0,0,1-1.043-.774H2.348v4.345ZM4.087,2.151A1.855,1.855,0,0,0,2.7,2.667a2.045,2.045,0,0,0-.477,1.378A2.041,2.041,0,0,0,2.7,5.422a1.853,1.853,0,0,0,1.392.517,1.852,1.852,0,0,0,1.391-.517,1.837,1.837,0,0,0,.478-1.377,2.042,2.042,0,0,0-.478-1.378A1.854,1.854,0,0,0,4.087,2.151Z" transform="translate(52.404 14.675)"/><path class="b" d="M4.261,8a4.324,4.324,0,0,1-1.652-.3,3.833,3.833,0,0,1-1.347-.817A3.692,3.692,0,0,1,.348,5.637a4.013,4.013,0,0,1,0-3.27,3.682,3.682,0,0,1,.914-1.248A4.625,4.625,0,0,1,2.608.3,5.264,5.264,0,0,1,4.261,0,3.215,3.215,0,0,1,5.739.3a3,3,0,0,1,1.131.817,3.147,3.147,0,0,1,.7,1.248A4.737,4.737,0,0,1,7.826,4v.733H2.348A1.9,1.9,0,0,0,2.957,5.81,1.762,1.762,0,0,0,4.13,6.2a1.927,1.927,0,0,0,1-.258,2.443,2.443,0,0,0,.7-.647L7.478,6.5A4.015,4.015,0,0,1,6.043,7.617,4.256,4.256,0,0,1,4.261,8Zm-.217-6.24a1.853,1.853,0,0,0-.7.128,2.054,2.054,0,0,0-.522.3,3.056,3.056,0,0,0-.348.431,1.138,1.138,0,0,0-.131.516H5.471a1.345,1.345,0,0,0-.384-.946A1.292,1.292,0,0,0,4.044,1.764Z" transform="translate(61.62 14.675)"/><path class="b" d="M4.261,2.151a1.292,1.292,0,0,1,.7.172,1.549,1.549,0,0,1,.478.43L7,.99A3.392,3.392,0,0,0,5.7.214,6.142,6.142,0,0,0,4.261,0,5.336,5.336,0,0,0,2.608.3a4.705,4.705,0,0,0-1.348.817A3.737,3.737,0,0,0,.347,2.367a4.024,4.024,0,0,0,0,3.27A3.734,3.734,0,0,0,1.26,6.885,3.912,3.912,0,0,0,2.608,7.7,4.326,4.326,0,0,0,4.261,8,5.539,5.539,0,0,0,5.7,7.789,2.526,2.526,0,0,0,7,7.014L5.434,5.379a4.7,4.7,0,0,1-.478.388,1.292,1.292,0,0,1-.7.172,1.844,1.844,0,0,1-1.391-.516A2.04,2.04,0,0,1,2.39,4.045a1.844,1.844,0,0,1,.479-1.377,1.844,1.844,0,0,1,1.391-.517" transform="translate(70.359 14.632)"/><path class="b" d="M3.869,0H1.521V2.238H0v1.85H1.521V7.66a2.637,2.637,0,0,0,.218,1.076,2.347,2.347,0,0,0,.609.689,2.675,2.675,0,0,0,.869.387A4.193,4.193,0,0,0,4.3,9.941,5.5,5.5,0,0,0,5.129,9.9a2.573,2.573,0,0,0,.826-.172V7.788a1.207,1.207,0,0,1-.478.172A1.978,1.978,0,0,1,5,8a1.224,1.224,0,0,1-.608-.085.8.8,0,0,1-.348-.3,1.25,1.25,0,0,1-.13-.431,2.234,2.234,0,0,1-.044-.559V4.088H5.956V2.238H3.869Z" transform="translate(77.707 12.695)"/><path class="b" d="M4.565,0a2.432,2.432,0,0,0-1.3.345,2.708,2.708,0,0,0-.913,1.033H2.3V.172H0V7.7H2.348V4.562a7.671,7.671,0,0,1,.043-1.033,2.014,2.014,0,0,1,.261-.817,1.438,1.438,0,0,1,.609-.516,2.614,2.614,0,0,1,1.086-.172,2.108,2.108,0,0,1,.522.044c.13.043.3.086.478.129V.043C5.218.043,5.087,0,4.957,0Z" transform="translate(84.966 14.76)"/><path class="b" d="M4.261,8a4.312,4.312,0,0,1-1.652-.3,3.841,3.841,0,0,1-1.347-.818A3.682,3.682,0,0,1,.348,5.636,3.456,3.456,0,0,1,0,4,3.943,3.943,0,0,1,.348,2.366a3.687,3.687,0,0,1,.914-1.248A4.61,4.61,0,0,1,2.608.3,5.261,5.261,0,0,1,4.261,0,4.3,4.3,0,0,1,5.913.3a3.841,3.841,0,0,1,1.348.817,3.674,3.674,0,0,1,.912,1.248,4.013,4.013,0,0,1,0,3.27,3.668,3.668,0,0,1-.912,1.248A4.646,4.646,0,0,1,5.913,7.7,5.278,5.278,0,0,1,4.261,8Zm-.043-5.9a1.849,1.849,0,0,0-1.391.517A2.036,2.036,0,0,0,2.348,4a2.038,2.038,0,0,0,.479,1.377,1.852,1.852,0,0,0,1.391.516A1.852,1.852,0,0,0,5.61,5.379,1.842,1.842,0,0,0,6.087,4,2.039,2.039,0,0,0,5.61,2.625,1.85,1.85,0,0,0,4.218,2.108Z" transform="translate(90.836 14.718)"/><path class="b" d="M7,8.951a2.7,2.7,0,0,1-1.349.3,2.937,2.937,0,0,1-1.217-.257,3.309,3.309,0,0,1-1-.732,4,4,0,0,1-.652-1.119,3.756,3.756,0,0,1-.261-1.42A3.756,3.756,0,0,1,2.783,4.3a3.268,3.268,0,0,1,.7-1.118,2.852,2.852,0,0,1,1-.732A3,3,0,0,1,5.739,2.2a2.674,2.674,0,0,1,1.217.214,2.663,2.663,0,0,1,.869.689L9.782,1.636A4.607,4.607,0,0,0,8.956.861,4.142,4.142,0,0,0,8,.345,3.766,3.766,0,0,0,7,.087,8.625,8.625,0,0,0,6,0a7.132,7.132,0,0,0-2.39.388A5.061,5.061,0,0,0,1.7,1.55,4.541,4.541,0,0,0,.435,3.358,6.253,6.253,0,0,0,0,5.768a6.116,6.116,0,0,0,.435,2.41A5.915,5.915,0,0,0,1.7,9.985a5.409,5.409,0,0,0,1.913,1.161A7.112,7.112,0,0,0,6,11.534a5.872,5.872,0,0,0,2.218-.473A4.849,4.849,0,0,0,10,9.6L7.956,8.091A3.041,3.041,0,0,1,7,8.951" transform="translate(100.184 11.231)"/><path class="b" d="M4.261,8a4.312,4.312,0,0,1-1.652-.3,3.842,3.842,0,0,1-1.347-.818A3.689,3.689,0,0,1,.348,5.636,3.456,3.456,0,0,1,0,4,3.943,3.943,0,0,1,.348,2.366a3.7,3.7,0,0,1,.913-1.248A4.613,4.613,0,0,1,2.608.3,5.261,5.261,0,0,1,4.261,0,4.3,4.3,0,0,1,5.913.3a3.829,3.829,0,0,1,1.347.817,3.675,3.675,0,0,1,.913,1.248,4.013,4.013,0,0,1,0,3.27A3.669,3.669,0,0,1,7.26,6.884,4.631,4.631,0,0,1,5.913,7.7,5.287,5.287,0,0,1,4.261,8Zm-.044-5.9a1.846,1.846,0,0,0-1.39.517A2.036,2.036,0,0,0,2.348,4a2.038,2.038,0,0,0,.479,1.377,1.848,1.848,0,0,0,1.39.516,1.852,1.852,0,0,0,1.392-.516A1.839,1.839,0,0,0,6.087,4a2.036,2.036,0,0,0-.478-1.377A1.85,1.85,0,0,0,4.217,2.108Z" transform="translate(110.574 14.718)"/><path class="b" d="M1.349,0A1.353,1.353,0,0,0,.392.388,1.256,1.256,0,0,0,0,1.334a1.329,1.329,0,0,0,.392.948,1.284,1.284,0,0,0,.957.387A1.354,1.354,0,0,0,2.3,2.281,1.34,1.34,0,0,0,2.3.388,1.28,1.28,0,0,0,1.349,0" transform="translate(120.052 11.232)"/><path class="a" d="M0,34.066H131.617V0H0Z"/><g class="d"><path class="b" d="M0,7.575H2.348V0H0Z" transform="translate(120.27 14.933)"/><path class="b" d="M6.782,1.033a2.146,2.146,0,0,0-.87-.774A3.275,3.275,0,0,0,4.478,0,2.488,2.488,0,0,0,3.7.129a2.282,2.282,0,0,0-.652.3,4.587,4.587,0,0,0-.478.387,2.6,2.6,0,0,0-.3.431H2.217V.215H0V7.746H2.347V4a3.883,3.883,0,0,1,.044-.732,2.5,2.5,0,0,1,.217-.6,1.381,1.381,0,0,1,.435-.43,1.257,1.257,0,0,1,.739-.172,1.114,1.114,0,0,1,.7.172,1.352,1.352,0,0,1,.348.473,1.719,1.719,0,0,1,.13.645A3.888,3.888,0,0,1,5,4.045v3.7H7.348V3.571a7.148,7.148,0,0,0-.131-1.42,2.868,2.868,0,0,0-.435-1.118" transform="translate(124.27 14.718)"/></g></svg>